<?xml version="1.0" encoding="UTF-8"?><svg id="Layer_2" xmlns="http://www.w3.org/2000/svg" viewBox="0 0 299.13 95.75"><defs><style>.cls-1,.cls-2{fill:#4367b0;}.cls-3{fill:#fff;}.cls-3,.cls-2,.cls-4,.cls-5,.cls-6{fill-rule:evenodd;}.cls-4{fill:#d3ead7;}.cls-5{fill:#0d2640;}.cls-6{fill:#ccc;}</style></defs><g id="Layer_2-2"><path class="cls-1" d="m124.53,70.8c0,.31-.07.6-.2.88-.13.27-.34.51-.63.71s-.67.36-1.14.47-1.04.17-1.72.17c-.38,0-.76-.03-1.12-.09s-.71-.14-1.04-.25-.63-.24-.91-.4c-.28-.16-.52-.33-.72-.52l.54-.65c.41.36.89.62,1.44.81.55.19,1.15.28,1.81.28.73,0,1.25-.1,1.55-.3s.45-.48.45-.84c0-.28-.12-.51-.36-.7-.24-.19-.64-.37-1.21-.55l-2.06-.65c-.68-.22-1.19-.49-1.54-.83s-.52-.77-.52-1.29c0-.27.06-.53.19-.78.13-.25.32-.47.59-.66s.61-.34,1.02-.46c.41-.11.92-.17,1.5-.17.35,0,.71.03,1.06.09s.69.14,1.01.25.62.24.9.4.52.33.72.52l-.54.65c-.41-.36-.87-.63-1.39-.81-.51-.19-1.1-.28-1.76-.28-.54,0-.95.09-1.22.28-.27.19-.41.42-.41.7,0,.15.03.28.08.4.05.11.14.22.25.31.12.1.28.19.47.27.2.08.44.17.73.27l2.05.65c.66.21,1.17.49,1.55.83.38.34.56.77.56,1.29h.02Z"/><path class="cls-1" d="m132.06,66.02h-2.92v6.79h-1.57v-6.79h-2.92v-.81h7.42v.81h-.01Z"/><path class="cls-1" d="m136.28,64.99c.65,0,1.24.09,1.77.26s.99.43,1.36.77c.38.34.67.76.88,1.26s.31,1.08.31,1.73-.1,1.23-.31,1.73-.5.92-.88,1.26c-.38.34-.83.6-1.36.77s-1.12.26-1.77.26-1.24-.09-1.78-.26-.99-.43-1.37-.77c-.38-.34-.67-.76-.88-1.26s-.31-1.08-.31-1.73.1-1.23.31-1.73c.21-.5.5-.92.88-1.26.38-.34.84-.6,1.37-.77s1.13-.26,1.78-.26Zm0,.76c-.37,0-.71.07-1.03.2-.32.13-.6.33-.84.6-.24.27-.43.61-.57,1.02s-.21.89-.21,1.45.07,1.04.21,1.45c.14.41.33.75.57,1.02s.52.47.84.6c.32.13.67.2,1.03.2s.71-.07,1.03-.2c.32-.13.6-.33.84-.6.24-.27.43-.61.57-1.02.14-.41.21-.89.21-1.45s-.07-1.04-.21-1.45c-.14-.41-.33-.75-.57-1.02s-.52-.47-.84-.6c-.32-.13-.67-.2-1.03-.2Z"/><path class="cls-1" d="m147.06,71.73h.11l2.82-6.52h2.33v7.61h-1.57v-6.09h-.11l-2.6,6.09h-1.84l-2.6-6.09h-.11v6.09h-1.57v-7.61h2.33l2.82,6.52h0Z"/><path class="cls-1" d="m158.76,65.21l3.09,7.61h-1.56l-.72-1.85h-4.12l-.71,1.85h-1.56l3.09-7.61h2.49Zm-2.92,4.95h3.36l-1.62-4.02h-.11l-1.63,4.02Z"/><path class="cls-1" d="m168.62,66.02h-2.92v6.79h-1.57v-6.79h-2.92v-.81h7.42v.81h0Z"/><path class="cls-1" d="m172.84,64.99c.65,0,1.24.09,1.77.26.53.17.98.43,1.36.77s.67.76.88,1.26.31,1.08.31,1.73-.11,1.23-.31,1.73-.5.92-.88,1.26c-.38.34-.83.6-1.36.77s-1.12.26-1.77.26-1.24-.09-1.78-.26c-.54-.17-.99-.43-1.37-.77-.38-.34-.67-.76-.88-1.26s-.31-1.08-.31-1.73.1-1.23.31-1.73c.21-.5.5-.92.88-1.26.38-.34.84-.6,1.37-.77s1.13-.26,1.78-.26Zm0,.76c-.37,0-.71.07-1.03.2-.32.13-.6.33-.84.6-.24.27-.43.61-.57,1.02-.14.41-.21.89-.21,1.45s.07,1.04.21,1.45c.14.41.33.75.57,1.02s.52.47.84.6c.32.13.67.2,1.03.2s.71-.07,1.03-.2c.32-.13.6-.33.84-.6.24-.27.43-.61.57-1.02.14-.41.21-.89.21-1.45s-.07-1.04-.21-1.45-.33-.75-.57-1.02-.52-.47-.84-.6c-.32-.13-.67-.2-1.03-.2Z"/><path class="cls-1" d="m184.7,72v.81h-6.23v-7.61h1.57v6.79h4.66,0Z"/><path class="cls-1" d="m189.03,64.99c.65,0,1.24.09,1.77.26s.99.43,1.36.77c.38.34.67.76.88,1.26s.31,1.08.31,1.73-.1,1.23-.31,1.73-.5.92-.88,1.26c-.38.34-.83.6-1.36.77s-1.12.26-1.77.26-1.24-.09-1.78-.26-.99-.43-1.37-.77c-.38-.34-.67-.76-.88-1.26s-.31-1.08-.31-1.73.1-1.23.31-1.73c.21-.5.5-.92.88-1.26.38-.34.84-.6,1.37-.77s1.13-.26,1.78-.26Zm0,.76c-.37,0-.71.07-1.03.2-.32.13-.6.33-.84.6-.24.27-.43.61-.57,1.02s-.21.89-.21,1.45.07,1.04.21,1.45c.14.41.33.75.57,1.02s.52.47.84.6c.32.13.67.2,1.03.2s.71-.07,1.03-.2c.32-.13.6-.33.84-.6.24-.27.43-.61.57-1.02.14-.41.21-.89.21-1.45s-.07-1.04-.21-1.45c-.14-.41-.33-.75-.57-1.02s-.52-.47-.84-.6c-.32-.13-.67-.2-1.03-.2Z"/><path class="cls-1" d="m201.7,70.8c0,.31-.07.6-.2.88-.13.27-.34.51-.63.71-.29.2-.67.36-1.14.47s-1.04.17-1.72.17c-.38,0-.76-.03-1.12-.09s-.71-.14-1.04-.25-.63-.24-.91-.4-.52-.33-.72-.52l.54-.65c.41.36.89.62,1.44.81.55.19,1.15.28,1.81.28.73,0,1.25-.1,1.55-.3.3-.2.45-.48.45-.84,0-.28-.12-.51-.36-.7-.24-.19-.64-.37-1.21-.55l-2.06-.65c-.68-.22-1.19-.49-1.54-.83-.35-.34-.52-.77-.52-1.29,0-.27.06-.53.19-.78s.32-.47.59-.66.61-.34,1.02-.46c.42-.11.92-.17,1.5-.17.35,0,.71.03,1.06.09.35.06.69.14,1.01.25s.62.24.9.4.52.33.72.52l-.54.65c-.41-.36-.87-.63-1.39-.81-.51-.19-1.1-.28-1.75-.28-.54,0-.95.09-1.22.28s-.41.42-.41.7c0,.15.03.28.08.4.05.11.14.22.25.31s.28.19.47.27c.19.08.44.17.73.27l2.05.65c.66.21,1.17.49,1.55.83.38.34.56.77.56,1.29h.01Zm-4.34-6.25l-1.35-1.74h1.14l.81.98.82-.98h1.14l-1.36,1.74h-1.2Z"/><path class="cls-1" d="m207.66,68.96l2.87,3.86h-1.79l-2.49-3.37h-1.9v3.37h-1.57v-7.61h1.57v3.42h1.79l2.49-3.42h1.73l-2.71,3.75h.01Z"/><path class="cls-1" d="m216.33,65.21l3.09,7.61h-1.56l-.72-1.85h-4.12l-.72,1.85h-1.56l3.09-7.61h2.5Zm-2.92,4.95h3.36l-1.63-4.02h-.11l-1.63,4.02h.01Z"/><path class="cls-1" d="m228.19,64.99c.65,0,1.24.09,1.77.26s.99.43,1.36.77c.38.34.67.76.88,1.26s.31,1.08.31,1.73-.1,1.23-.31,1.73-.5.92-.88,1.26c-.38.34-.83.6-1.36.77s-1.12.26-1.77.26-1.24-.09-1.78-.26-.99-.43-1.37-.77c-.38-.34-.67-.76-.88-1.26s-.31-1.08-.31-1.73.1-1.23.31-1.73c.21-.5.5-.92.88-1.26.38-.34.84-.6,1.37-.77s1.13-.26,1.78-.26Zm0,.76c-.37,0-.71.07-1.03.2-.32.13-.6.33-.84.6-.24.27-.43.61-.57,1.02-.14.41-.21.89-.21,1.45s.07,1.04.21,1.45c.14.41.33.75.57,1.02s.52.47.84.6c.32.13.67.2,1.03.2s.71-.07,1.03-.2c.32-.13.6-.33.84-.6.24-.27.43-.61.57-1.02.14-.41.21-.89.21-1.45s-.07-1.04-.21-1.45-.33-.75-.57-1.02-.52-.47-.84-.6c-.32-.13-.67-.2-1.03-.2Z"/><path class="cls-1" d="m237.72,65.21c.54,0,1.03.06,1.46.18.43.12.79.29,1.09.52.3.23.52.51.68.84.16.33.24.71.24,1.13,0,.58-.15,1.07-.43,1.47-.29.4-.7.7-1.25.91l1.79,2.57h-1.79l-1.59-2.28h-2.52v2.28h-1.57v-7.61h3.9,0Zm-2.33.81v3.7h2.33c.57,0,1.01-.15,1.32-.45s.47-.77.47-1.4-.16-1.1-.47-1.4-.75-.45-1.32-.45h-2.33Z"/><path class="cls-1" d="m246.06,65.21c.65,0,1.24.08,1.77.24.53.16.99.4,1.37.72.38.32.67.72.88,1.19s.31,1.02.31,1.65-.1,1.17-.31,1.65c-.21.47-.5.87-.88,1.19s-.83.56-1.37.72c-.53.16-1.12.24-1.77.24h-3.57v-7.61h3.57Zm-2,.81v5.98h2c.37,0,.71-.06,1.03-.17s.6-.29.84-.53c.24-.24.43-.55.57-.93s.21-.83.21-1.36-.07-.98-.21-1.36-.33-.69-.57-.93-.52-.42-.84-.53-.67-.17-1.03-.17c0,0-2,0-2,0Z"/><path class="cls-1" d="m253.15,72.82h-1.57v-7.61h1.57v7.61Z"/><path class="cls-1" d="m262.47,65.21v7.61h-2.06l-4.06-6.19h-.11v6.19h-1.57v-7.61h2.06l4.06,6.19h.11v-6.19h1.57Z"/><path class="cls-1" d="m268.91,65.21l3.09,7.61h-1.56l-.72-1.85h-4.12l-.72,1.85h-1.56l3.09-7.61h2.5Zm-2.92,4.95h3.36l-1.63-4.02h-.11l-1.63,4.02h.01Z"/><path class="cls-1" d="m276.66,72.22c.49,0,.96-.08,1.41-.26.45-.17.88-.45,1.29-.83l.54.65c-.41.38-.91.69-1.49.91s-1.21.34-1.86.34-1.29-.09-1.84-.26c-.55-.17-1.01-.43-1.4-.77-.39-.34-.68-.76-.89-1.26s-.31-1.08-.31-1.73.1-1.23.31-1.73.5-.92.88-1.26c.38-.34.84-.6,1.37-.77s1.13-.26,1.78-.26,1.28.11,1.86.34c.58.22,1.08.53,1.49.91l-.54.65c-.41-.38-.84-.66-1.29-.83s-.92-.26-1.41-.26c-.39,0-.75.06-1.09.19-.34.13-.63.32-.88.58s-.44.59-.58.99c-.14.4-.21.88-.21,1.44s.07,1.04.21,1.44c.14.4.34.73.6.99.26.26.56.45.91.58.35.13.73.19,1.15.19v.02Z"/><path class="cls-1" d="m282.45,72.82h-1.57v-7.61h1.57v7.61Z"/><path class="cls-1" d="m286.02,73.03c-.26,0-.52-.02-.77-.07s-.5-.11-.74-.19-.46-.17-.66-.28c-.2-.1-.38-.22-.53-.34l.49-.65c.32.25.66.43.99.54s.71.17,1.12.17c.3,0,.57-.05.83-.14s.48-.24.67-.44c.19-.2.34-.46.45-.78.11-.32.16-.7.16-1.15v-3.7h-2.55v-.81h4.12v4.51c0,.56-.08,1.04-.25,1.46-.17.41-.41.76-.72,1.03-.31.28-.69.48-1.13.62s-.93.21-1.47.21h-.01Z"/><path class="cls-1" d="m296.04,65.21l3.09,7.61h-1.56l-.72-1.85h-4.12l-.72,1.85h-1.56l3.09-7.61h2.5Zm-2.92,4.95h3.36l-1.63-4.02h-.11l-1.63,4.02h.01Z"/><path class="cls-1" d="m130.6,23.9c2.37,0,4.52.3,6.46.89s3.6,1.47,4.98,2.63c1.38,1.16,2.46,2.6,3.22,4.33.76,1.72,1.15,3.72,1.15,5.99s-.38,4.26-1.15,5.99c-.76,1.73-1.84,3.17-3.22,4.33-1.38,1.16-3.04,2.03-4.98,2.63-1.94.59-4.09.89-6.46.89h-13.04v-27.66h13.04v-.02Zm-7.31,2.96v21.73h7.31c1.34,0,2.6-.2,3.77-.61s2.19-1.05,3.06-1.94c.87-.88,1.56-2.01,2.07-3.38s.77-3.02.77-4.94-.26-3.57-.77-4.94-1.21-2.5-2.07-3.38-1.89-1.53-3.06-1.94-2.43-.61-3.77-.61h-7.31Z"/><path class="cls-1" d="m166.36,33.78h-4.74c-1.79,0-3.16.48-4.11,1.44s-1.42,2.39-1.42,4.29v12.05h-5.53v-12.05c0-2.69.85-4.77,2.55-6.26,1.7-1.49,4.14-2.23,7.33-2.23h5.93v2.77h0Z"/><path class="cls-1" d="m196.39,23.9c2.37,0,4.52.3,6.46.89s3.6,1.47,4.98,2.63c1.38,1.16,2.46,2.6,3.22,4.33.76,1.72,1.15,3.72,1.15,5.99s-.38,4.26-1.15,5.99c-.76,1.73-1.84,3.17-3.22,4.33-1.38,1.16-3.04,2.03-4.98,2.63-1.94.59-4.09.89-6.46.89h-13.04v-27.66h13.04v-.02Zm-7.31,2.96v21.73h7.31c1.34,0,2.6-.2,3.77-.61s2.19-1.05,3.06-1.94c.87-.88,1.56-2.01,2.07-3.38.51-1.37.77-3.02.77-4.94s-.26-3.57-.77-4.94c-.51-1.37-1.2-2.5-2.07-3.38s-1.89-1.53-3.06-1.94-2.43-.61-3.77-.61h-7.31Z"/><path class="cls-1" d="m231.17,38.52c0-1.9-.49-3.29-1.48-4.19-.99-.9-2.27-1.34-3.85-1.34-1.19,0-2.35.18-3.48.53-1.13.36-2.15.84-3.04,1.44l-1.38-2.37c.58-.39,1.22-.74,1.92-1.03s1.42-.53,2.15-.73c.74-.2,1.47-.35,2.19-.45s1.4-.16,2.03-.16c1.69,0,3.17.2,4.47.59,1.29.4,2.38.96,3.28,1.7.9.74,1.57,1.61,2.03,2.63.46,1.01.69,2.14.69,3.38v13.04h-11.06c-3.58,0-6.22-.54-7.92-1.62-1.7-1.08-2.55-2.71-2.55-4.9s.85-3.82,2.55-4.9,4.34-1.62,7.92-1.62h5.53Zm-10.08,6.52c0,2.5,1.51,3.75,4.54,3.75h5.53v-7.51h-5.53c-3.03,0-4.54,1.25-4.54,3.75h0Z"/><path class="cls-1" d="m251.71,42.47h-4.15v9.09h-5.53v-27.66h5.53v15.81h4.15l6.12-8.69h5.93l-6.91,9.88,7.31,10.67h-6.32l-6.12-9.09h0Z"/><path class="cls-1" d="m273.25,26.07c0,.79-.27,1.48-.81,2.07s-1.26.89-2.15.89-1.61-.3-2.15-.89-.81-1.28-.81-2.07.27-1.48.81-2.08c.54-.59,1.26-.89,2.15-.89s1.58.3,2.13.89c.55.59.83,1.28.83,2.08Zm-.2,25.49h-5.53v-20.15h5.53v20.15Z"/><path class="cls-1" d="m289.84,30.22c.84,0,1.69.07,2.53.22s1.65.34,2.43.59,1.5.56,2.17.93c.67.37,1.26.78,1.76,1.23l-1.58,2.37c-1.08-.82-2.18-1.45-3.3-1.9s-2.32-.67-3.61-.67c-.95,0-1.82.15-2.61.45s-1.48.79-2.05,1.46c-.58.67-1.03,1.53-1.36,2.59-.33,1.05-.49,2.32-.49,3.79s.16,2.74.49,3.79.8,1.92,1.4,2.59c.61.67,1.34,1.16,2.19,1.46.86.3,1.8.45,2.82.45,1.29,0,2.5-.22,3.62-.67,1.12-.45,2.22-1.08,3.3-1.9l1.58,2.37c-.5.45-1.09.86-1.76,1.23s-1.4.68-2.17.93c-.78.25-1.59.45-2.43.59s-1.69.22-2.53.22c-1.87,0-3.58-.24-5.12-.73-1.54-.49-2.85-1.2-3.93-2.13s-1.92-2.09-2.51-3.46-.89-2.95-.89-4.74.3-3.34.89-4.72c.59-1.38,1.42-2.54,2.47-3.48,1.05-.93,2.32-1.65,3.79-2.13,1.48-.49,3.11-.73,4.9-.73h0Zm5.45-7.51l-4.19,5.93h-3.75l2.37-5.93h5.57Z"/><path class="cls-2" d="m7.99,95.74h36.38c34.47,0,54.57-20.52,54.57-48.14v-.27c.01-27.63-19.82-47.33-54.02-47.33H7.99v25.34c3.36-.78,7.27-1.24,10.99-.61,9.38,1.59,14.86,7.56,14.86,7.56l-25.85,3.93v59.53h0Z"/><path class="cls-5" d="m34.52,72.22V23.53h10.81c15.86,0,26.4,8.89,26.4,24.21v.27c0,15.46-10.54,24.21-26.4,24.21h-10.81Z"/><path class="cls-2" d="m33.84,38.16v-16.82h17.23c7.93,0,12.03,3.01,12.03,8.2v.27c0,5.61-4.51,8.35-12.58,8.35h-16.69.01Z"/><path class="cls-5" d="m33.84,74.41v-17.65h20.24c8.89,0,13,3.42,13,8.62v.27c0,5.61-4.65,8.76-12.72,8.76,0,0-20.52,0-20.52,0Z"/><path class="cls-2" d="m34.35,32.56l2.45-1.29c2.3-1.21,4.99-2.4,7.48-3.16,13.28-4.03,27.77-.79,28.4,16.05.2,5.37-.28,10.86-1.18,16.15-1.63,9.65-6.28,26.75-15.38,31.99-1.76,1.01-3.69,1.54-5.67,1.46h0c-3.05-.05-5.99-1.55-8.31-5.65-2.77-4.89-5.04-3.86-7.77-1.18-3.23,3.19-3.83,4.43-8.47,6.9-2.43,1.3-4.83,1.97-7,1.52-3.24-.67-5.65-2.82-7.35-5.58-1.77-2.88-3.22-6.85-4.36-10.04-1.69-4.77-3.15-9.67-4.36-14.58-1.89-7.65-4.82-21.5-.87-28.74,6.25-11.43,21.89-9.51,32.38-3.86h.01Zm19.78,13.18s-10.6,1.12-18.65-5.33c-8.05-6.44-23.49-9.86-28.27-1.13-4.77,8.74,5.52,41.01,9.43,47.36s9.62.3,17.86-7.84c8.23-8.13,12.43,11.83,18.64,8.32s14.18-26.52,13.57-42.73-17.81-11.43-20.69-10.56c-2.89.87-6.43,2.73-6.43,2.73,1.05,2.02,8.44,6.94,14.54,9.18h0Z"/><path class="cls-6" d="m20.23,80.89c-2.2-8.02-8.73-25.75-7.11-36.1,1.63-10.36,15.66-8.32,15.66-8.32-8.04-3.44-17.92-3.86-21.56,2.81-4.77,8.74,5.52,41.01,9.43,47.36,3.15,5.12,7.47,2.18,13.33-3.41,0,0-7.57,5.67-9.76-2.35h.01Z"/><path class="cls-3" d="m29.98,83.24c1.42-1.35,2.92-2.85,4.52-4.43,8.23-8.13,12.43,11.83,18.64,8.32s14.18-26.52,13.57-42.73-17.81-11.43-20.69-10.56c-2.89.87-6.43,2.73-6.43,2.73,1.05,2.02,8.44,6.94,14.54,9.18,0,0-10.6,1.12-18.65-5.33-1.9-1.52-4.22-2.88-6.71-3.94-8.04-3.44-17.92-3.86-21.56,2.81-4.77,8.74,5.52,41.01,9.43,47.36,3.15,5.12,7.47,2.18,13.33-3.41h.01Z"/><path class="cls-4" d="m20.23,80.89c-2.2-8.02-8.73-25.75-7.11-36.1,1.63-10.36,15.66-8.32,15.66-8.32-8.04-3.44-17.92-3.86-21.56,2.81-4.77,8.74,5.52,41.01,9.43,47.36,3.15,5.12,7.47,2.18,13.33-3.41,0,0-7.57,5.67-9.76-2.35h.01Z"/></g></svg>