<?xml version="1.0" encoding="UTF-8"?><svg id="Layer_2" xmlns="http://www.w3.org/2000/svg" viewBox="0 0 294.21 394.21"><defs><style>.cls-1,.cls-2{fill:#4368b1;}.cls-3{fill:#fff;}.cls-3,.cls-2,.cls-4,.cls-5,.cls-6{fill-rule:evenodd;}.cls-4{fill:#0d2640;}.cls-5{fill:#d4ebd8;}.cls-6{fill:#ccc;}</style></defs><g id="Layer_1-2"><path class="cls-1" d="m12.08,390.61c0,.5-.11.97-.32,1.41-.21.44-.55.82-1.02,1.14-.47.32-1.09.58-1.84.76s-1.68.28-2.77.28c-.62,0-1.22-.05-1.81-.14-.59-.09-1.15-.23-1.68-.4-.53-.18-1.02-.39-1.47-.64-.45-.25-.84-.53-1.16-.83l.87-1.05c.67.57,1.44,1.01,2.33,1.31.89.3,1.86.45,2.92.45,1.18,0,2.01-.16,2.5-.49s.74-.78.74-1.35c0-.45-.19-.82-.58-1.12-.39-.3-1.04-.6-1.96-.9l-3.33-1.05c-1.1-.35-1.93-.8-2.49-1.34s-.84-1.24-.84-2.08c0-.43.1-.85.31-1.26.21-.4.52-.76.95-1.07.43-.31.98-.56,1.65-.74.67-.18,1.48-.27,2.42-.27.57,0,1.14.05,1.71.14.57.09,1.11.23,1.63.4s1,.39,1.45.64.84.53,1.16.83l-.87,1.05c-.67-.57-1.41-1.01-2.24-1.31-.83-.3-1.77-.45-2.84-.45-.88,0-1.53.15-1.97.46-.44.3-.66.68-.66,1.12,0,.25.04.46.12.64.08.18.22.35.41.51.19.16.45.3.76.44.32.14.71.28,1.17.43l3.31,1.05c1.06.34,1.9.78,2.5,1.33.61.55.91,1.25.91,2.09Z"/><path class="cls-1" d="m24.24,382.88h-4.73v10.98h-2.54v-10.98h-4.72v-1.32h11.99v1.32Z"/><path class="cls-1" d="m31.07,381.22c1.05,0,2,.14,2.86.42s1.59.7,2.21,1.25c.61.55,1.09,1.23,1.43,2.04s.51,1.74.51,2.79-.17,1.98-.51,2.79-.81,1.49-1.43,2.04c-.61.55-1.35.96-2.21,1.25s-1.81.42-2.86.42-2.01-.14-2.87-.42-1.6-.7-2.21-1.25c-.61-.55-1.09-1.23-1.42-2.04-.33-.81-.5-1.74-.5-2.79s.17-1.98.5-2.79c.33-.81.81-1.49,1.42-2.04.61-.55,1.35-.96,2.21-1.25s1.82-.42,2.87-.42Zm0,1.23c-.59,0-1.15.11-1.67.32-.52.21-.97.53-1.36.96-.38.43-.69.98-.92,1.64s-.34,1.44-.34,2.34.11,1.68.34,2.35c.23.66.53,1.21.92,1.64.39.43.84.76,1.36.97.52.21,1.08.32,1.67.32s1.15-.11,1.67-.32c.52-.21.97-.53,1.36-.97.39-.43.69-.98.92-1.64.23-.66.34-1.44.34-2.35s-.11-1.68-.34-2.34c-.23-.66-.53-1.21-.92-1.64-.38-.43-.84-.76-1.36-.96-.52-.21-1.08-.32-1.67-.32Z"/><path class="cls-1" d="m48.48,392.1h.18l4.55-10.54h3.76v12.29h-2.54v-9.83h-.18l-4.2,9.83h-2.98l-4.2-9.83h-.18v9.83h-2.54v-12.29h3.76l4.55,10.54Z"/><path class="cls-1" d="m67.38,381.57l4.99,12.29h-2.52l-1.16-2.99h-6.65l-1.15,2.99h-2.52l4.99-12.29h4.03Zm-4.73,7.99h5.43l-2.62-6.5h-.18l-2.63,6.5Z"/><path class="cls-1" d="m83.31,382.88h-4.73v10.98h-2.54v-10.98h-4.73v-1.32h11.99v1.32Z"/><path class="cls-1" d="m90.14,381.22c1.05,0,2,.14,2.86.42.86.28,1.59.7,2.21,1.25.61.55,1.09,1.23,1.43,2.04s.51,1.74.51,2.79-.17,1.98-.51,2.79-.81,1.49-1.43,2.04c-.61.55-1.35.96-2.21,1.25-.86.28-1.81.42-2.86.42s-2.01-.14-2.87-.42c-.86-.28-1.6-.7-2.21-1.25-.61-.55-1.09-1.23-1.42-2.04-.33-.81-.5-1.74-.5-2.79s.17-1.98.5-2.79c.33-.81.81-1.49,1.42-2.04.61-.55,1.35-.96,2.21-1.25.86-.28,1.82-.42,2.87-.42Zm0,1.23c-.59,0-1.15.11-1.67.32-.52.21-.97.53-1.36.96-.39.43-.69.98-.92,1.64-.23.66-.34,1.44-.34,2.34s.11,1.68.34,2.35c.23.66.53,1.21.92,1.64.38.43.84.76,1.36.97.52.21,1.08.32,1.67.32s1.15-.11,1.67-.32c.52-.21.97-.53,1.36-.97.38-.43.69-.98.92-1.64.23-.66.34-1.44.34-2.35s-.11-1.68-.34-2.34-.53-1.21-.92-1.64c-.39-.43-.84-.76-1.36-.96-.52-.21-1.08-.32-1.67-.32Z"/><path class="cls-1" d="m109.3,392.54v1.32h-10.06v-12.29h2.54v10.98h7.53Z"/><path class="cls-1" d="m116.3,381.22c1.05,0,2,.14,2.86.42s1.59.7,2.21,1.25c.61.55,1.09,1.23,1.43,2.04s.51,1.74.51,2.79-.17,1.98-.51,2.79-.81,1.49-1.43,2.04c-.61.55-1.35.96-2.21,1.25s-1.81.42-2.86.42-2.01-.14-2.87-.42-1.6-.7-2.21-1.25c-.61-.55-1.09-1.23-1.42-2.04-.33-.81-.5-1.74-.5-2.79s.17-1.98.5-2.79c.33-.81.81-1.49,1.42-2.04.61-.55,1.35-.96,2.21-1.25s1.82-.42,2.87-.42Zm0,1.23c-.59,0-1.15.11-1.67.32-.52.21-.97.53-1.36.96-.38.43-.69.98-.92,1.64s-.34,1.44-.34,2.34.11,1.68.34,2.35c.23.66.53,1.21.92,1.64.39.43.84.76,1.36.97.52.21,1.08.32,1.67.32s1.15-.11,1.67-.32c.52-.21.97-.53,1.36-.97.39-.43.69-.98.92-1.64.23-.66.34-1.44.34-2.35s-.11-1.68-.34-2.34c-.23-.66-.53-1.21-.92-1.64-.38-.43-.84-.76-1.36-.96-.52-.21-1.08-.32-1.67-.32Z"/><path class="cls-1" d="m136.78,390.61c0,.5-.11.97-.32,1.41-.21.44-.55.82-1.02,1.14-.47.32-1.08.58-1.84.76s-1.68.28-2.77.28c-.62,0-1.22-.05-1.81-.14-.59-.09-1.15-.23-1.68-.4s-1.02-.39-1.47-.64-.84-.53-1.16-.83l.88-1.05c.66.57,1.44,1.01,2.33,1.31.89.3,1.86.45,2.92.45,1.18,0,2.01-.16,2.5-.49.49-.33.74-.78.74-1.35,0-.45-.19-.82-.58-1.12-.38-.3-1.04-.6-1.96-.9l-3.33-1.05c-1.1-.35-1.92-.8-2.48-1.34-.56-.54-.84-1.24-.84-2.08,0-.43.1-.85.31-1.26.2-.4.52-.76.95-1.07s.98-.56,1.65-.74c.67-.18,1.48-.27,2.43-.27.57,0,1.14.05,1.71.14.57.09,1.11.23,1.63.4s1,.39,1.45.64.84.53,1.16.83l-.88,1.05c-.66-.57-1.41-1.01-2.24-1.31-.83-.3-1.77-.45-2.84-.45-.88,0-1.53.15-1.97.46-.44.3-.66.68-.66,1.12,0,.25.04.46.12.64.08.18.22.35.41.51s.45.3.76.44c.31.14.71.28,1.17.43l3.31,1.05c1.06.34,1.89.78,2.5,1.33.61.55.91,1.25.91,2.09Zm-7.02-10.1l-2.19-2.81h1.84l1.31,1.58,1.33-1.58h1.84l-2.21,2.81h-1.93Z"/><path class="cls-1" d="m146.41,387.63l4.64,6.23h-2.89l-4.03-5.44h-3.06v5.44h-2.54v-12.29h2.54v5.53h2.89l4.03-5.53h2.8l-4.38,6.06Z"/><path class="cls-1" d="m160.41,381.57l4.99,12.29h-2.52l-1.16-2.99h-6.65l-1.16,2.99h-2.52l4.99-12.29h4.03Zm-4.73,7.99h5.43l-2.63-6.5h-.17l-2.63,6.5Z"/><path class="cls-1" d="m179.57,381.22c1.05,0,2,.14,2.86.42s1.59.7,2.21,1.25c.61.55,1.09,1.23,1.43,2.04s.51,1.74.51,2.79-.17,1.98-.51,2.79-.81,1.49-1.43,2.04c-.61.55-1.35.96-2.21,1.25s-1.81.42-2.86.42-2.01-.14-2.87-.42-1.6-.7-2.21-1.25c-.61-.55-1.09-1.23-1.42-2.04-.33-.81-.5-1.74-.5-2.79s.17-1.98.5-2.79c.33-.81.81-1.49,1.42-2.04.61-.55,1.35-.96,2.21-1.25s1.82-.42,2.87-.42Zm0,1.23c-.6,0-1.15.11-1.67.32-.52.21-.97.53-1.36.96-.39.43-.69.98-.92,1.64-.23.66-.34,1.44-.34,2.34s.11,1.68.34,2.35c.23.66.53,1.21.92,1.64.38.43.84.76,1.36.97.52.21,1.08.32,1.67.32s1.15-.11,1.67-.32c.52-.21.97-.53,1.36-.97.38-.43.69-.98.92-1.64.23-.66.34-1.44.34-2.35s-.11-1.68-.34-2.34-.53-1.21-.92-1.64c-.39-.43-.84-.76-1.36-.96-.52-.21-1.08-.32-1.67-.32Z"/><path class="cls-1" d="m194.98,381.57c.88,0,1.66.1,2.35.29.69.19,1.28.48,1.76.84.48.37.85.82,1.1,1.35.26.53.39,1.14.39,1.82,0,.94-.23,1.73-.7,2.37-.47.64-1.14,1.14-2.01,1.48l2.89,4.15h-2.89l-2.57-3.69h-4.08v3.69h-2.54v-12.29h6.3Zm-3.76,1.32v5.97h3.76c.92,0,1.63-.24,2.14-.73s.75-1.24.75-2.26-.25-1.77-.75-2.26-1.21-.73-2.14-.73h-3.76Z"/><path class="cls-1" d="m208.45,381.57c1.05,0,2,.13,2.86.4.86.26,1.59.65,2.21,1.17.61.52,1.09,1.16,1.43,1.92.34.77.51,1.65.51,2.66s-.17,1.89-.51,2.66c-.34.77-.81,1.41-1.43,1.92-.61.52-1.35.9-2.21,1.17-.86.26-1.81.4-2.86.4h-5.78v-12.29h5.78Zm-3.24,1.32v9.66h3.24c.59,0,1.15-.09,1.67-.27s.97-.47,1.36-.86c.38-.39.69-.89.92-1.5s.34-1.34.34-2.2-.11-1.59-.34-2.2-.53-1.11-.92-1.5c-.39-.39-.84-.68-1.36-.86s-1.08-.27-1.67-.27h-3.24Z"/><path class="cls-1" d="m219.92,393.86h-2.54v-12.29h2.54v12.29Z"/><path class="cls-1" d="m234.97,381.57v12.29h-3.33l-6.56-10.01h-.18v10.01h-2.54v-12.29h3.33l6.56,10.01h.18v-10.01h2.54Z"/><path class="cls-1" d="m245.38,381.57l4.99,12.29h-2.52l-1.16-2.99h-6.65l-1.16,2.99h-2.52l4.99-12.29h4.03Zm-4.73,7.99h5.43l-2.63-6.5h-.17l-2.63,6.5Z"/><path class="cls-1" d="m257.9,392.89c.79,0,1.56-.14,2.28-.41.73-.27,1.43-.72,2.09-1.34l.88,1.05c-.66.62-1.47,1.11-2.42,1.48-.94.36-1.95.55-3.01.55s-2.09-.14-2.97-.42c-.88-.28-1.63-.7-2.26-1.25-.62-.55-1.11-1.23-1.44-2.04s-.51-1.74-.51-2.79.17-1.98.5-2.79c.33-.81.81-1.49,1.42-2.04.61-.55,1.35-.96,2.21-1.25s1.82-.42,2.87-.42,2.06.18,3.01.54c.94.36,1.75.86,2.41,1.48l-.87,1.05c-.67-.62-1.36-1.07-2.09-1.34-.73-.27-1.49-.41-2.28-.41-.63,0-1.22.1-1.77.31-.55.2-1.02.52-1.42.94-.4.42-.71.96-.94,1.61-.23.65-.34,1.43-.34,2.33s.11,1.68.34,2.33c.23.65.55,1.18.96,1.61.41.42.9.73,1.47.94.57.21,1.19.31,1.86.31Z"/><path class="cls-1" d="m267.26,393.86h-2.54v-12.29h2.54v12.29Z"/><path class="cls-1" d="m273.04,394.21c-.42,0-.84-.04-1.25-.11s-.81-.17-1.2-.3c-.38-.13-.74-.28-1.07-.45-.33-.17-.61-.35-.86-.55l.79-1.05c.52.4,1.06.69,1.6.87s1.15.27,1.81.27c.48,0,.93-.07,1.34-.22s.78-.38,1.09-.71c.31-.33.55-.75.73-1.26.18-.51.26-1.13.26-1.85v-5.97h-4.11v-1.32h6.65v7.29c0,.9-.14,1.68-.41,2.35-.27.67-.66,1.22-1.16,1.67-.5.45-1.11.78-1.82,1-.71.22-1.51.33-2.38.33Z"/><path class="cls-1" d="m289.22,381.57l4.99,12.29h-2.52l-1.16-2.99h-6.65l-1.16,2.99h-2.52l4.99-12.29h4.03Zm-4.73,7.99h5.43l-2.63-6.5h-.17l-2.63,6.5Z"/><path class="cls-1" d="m21.88,314.81c3.83,0,7.31.48,10.44,1.44,3.13.96,5.81,2.37,8.05,4.24,2.23,1.87,3.97,4.2,5.2,6.99,1.23,2.79,1.85,6.01,1.85,9.67s-.62,6.89-1.85,9.67c-1.23,2.79-2.97,5.12-5.2,6.99-2.23,1.87-4.92,3.29-8.05,4.24-3.13.96-6.61,1.44-10.44,1.44H.81v-44.7h21.07Zm-11.81,4.79v35.12h11.81c2.17,0,4.2-.33,6.1-.99,1.89-.66,3.54-1.7,4.95-3.13,1.4-1.42,2.52-3.25,3.35-5.46s1.24-4.87,1.24-7.98-.41-5.77-1.24-7.98-1.95-4.03-3.35-5.46c-1.4-1.43-3.05-2.47-4.95-3.13-1.89-.66-3.93-.99-6.1-.99h-11.81Z"/><path class="cls-1" d="m79.67,330.77h-7.66c-2.89,0-5.11.78-6.64,2.33-1.53,1.55-2.3,3.86-2.3,6.93v19.48h-8.94v-19.48c0-4.34,1.37-7.71,4.12-10.12,2.75-2.4,6.69-3.61,11.84-3.61h9.58v4.47Z"/><path class="cls-1" d="m128.2,314.81c3.83,0,7.31.48,10.44,1.44,3.13.96,5.81,2.37,8.05,4.24,2.24,1.87,3.97,4.2,5.2,6.99,1.23,2.79,1.85,6.01,1.85,9.67s-.62,6.89-1.85,9.67c-1.23,2.79-2.97,5.12-5.2,6.99-2.24,1.87-4.92,3.29-8.05,4.24-3.13.96-6.61,1.44-10.44,1.44h-21.07v-44.7h21.07Zm-11.81,4.79v35.12h11.81c2.17,0,4.2-.33,6.1-.99,1.89-.66,3.54-1.7,4.95-3.13,1.4-1.42,2.52-3.25,3.35-5.46.83-2.21,1.25-4.87,1.25-7.98s-.41-5.77-1.25-7.98c-.83-2.21-1.95-4.03-3.35-5.46-1.4-1.43-3.06-2.47-4.95-3.13-1.9-.66-3.93-.99-6.1-.99h-11.81Z"/><path class="cls-1" d="m184.39,338.44c0-3.06-.8-5.32-2.39-6.77-1.6-1.45-3.67-2.17-6.22-2.17-1.92,0-3.79.29-5.62.86-1.83.57-3.47,1.35-4.92,2.33l-2.23-3.83c.94-.64,1.97-1.19,3.1-1.66,1.13-.47,2.29-.86,3.48-1.18,1.19-.32,2.37-.56,3.54-.73,1.17-.17,2.27-.25,3.29-.25,2.72,0,5.13.32,7.22.96,2.08.64,3.85,1.55,5.3,2.75,1.45,1.19,2.54,2.61,3.29,4.25.74,1.64,1.12,3.46,1.12,5.46v21.07h-17.88c-5.79,0-10.06-.87-12.8-2.62-2.75-1.75-4.12-4.39-4.12-7.92s1.37-6.17,4.12-7.92c2.75-1.75,7.01-2.62,12.8-2.62h8.94Zm-16.28,10.54c0,4.04,2.45,6.07,7.34,6.07h8.94v-12.13h-8.94c-4.89,0-7.34,2.02-7.34,6.07Z"/><path class="cls-1" d="m217.59,344.82h-6.7v14.69h-8.94v-44.7h8.94v25.54h6.7l9.9-14.05h9.58l-11.17,15.96,11.81,17.24h-10.22l-9.9-14.69Z"/><path class="cls-1" d="m252.39,318.32c0,1.28-.44,2.39-1.31,3.35-.87.96-2.03,1.44-3.48,1.44s-2.61-.48-3.48-1.44c-.87-.96-1.31-2.07-1.31-3.35s.44-2.39,1.31-3.35c.87-.96,2.03-1.44,3.48-1.44s2.56.48,3.45,1.44c.89.96,1.34,2.08,1.34,3.35Zm-.32,41.18h-8.94v-32.57h8.94v32.57Z"/><path class="cls-1" d="m279.21,325.03c1.36,0,2.72.12,4.09.35s2.67.55,3.93.96c1.26.41,2.43.91,3.51,1.5,1.09.6,2.03,1.26,2.84,1.98l-2.55,3.83c-1.75-1.32-3.52-2.34-5.33-3.06-1.81-.72-3.76-1.08-5.84-1.08-1.53,0-2.94.24-4.22.73s-2.38,1.28-3.32,2.36c-.94,1.09-1.67,2.48-2.2,4.18-.53,1.7-.8,3.75-.8,6.13s.27,4.43.8,6.13c.53,1.7,1.29,3.1,2.27,4.18.98,1.09,2.16,1.87,3.54,2.36,1.38.49,2.9.73,4.56.73,2.09,0,4.03-.36,5.84-1.08,1.81-.72,3.59-1.75,5.33-3.06l2.56,3.83c-.81.72-1.76,1.38-2.84,1.98-1.08.6-2.26,1.1-3.51,1.5-1.26.4-2.56.72-3.93.96s-2.72.35-4.09.35c-3.02,0-5.78-.39-8.27-1.18-2.49-.79-4.61-1.94-6.35-3.45-1.75-1.51-3.1-3.37-4.05-5.59-.96-2.21-1.44-4.77-1.44-7.66s.48-5.4,1.44-7.63c.96-2.24,2.29-4.11,3.99-5.62,1.7-1.51,3.74-2.66,6.13-3.45,2.38-.79,5.02-1.18,7.92-1.18Zm8.81-12.13l-6.77,9.58h-6.07l3.83-9.58h9Z"/><path class="cls-2" d="m24.44,283.37h107.68c102.01,0,161.52-60.72,161.52-142.49v-.81C293.64,58.3,234.95,0,133.74,0H24.44v75.01c9.95-2.32,21.51-3.68,32.53-1.8,27.77,4.71,43.99,22.36,43.99,22.36l-76.52,11.62v176.18Z"/><path class="cls-4" d="m102.97,213.74V69.63h31.99c46.95,0,78.13,26.32,78.13,71.66v.81c0,45.74-31.18,71.64-78.13,71.64h-31.99Z"/><path class="cls-2" d="m100.95,112.95v-49.79h51.01c23.48,0,35.62,8.9,35.62,24.28v.81c0,16.61-13.36,24.7-37.24,24.7h-49.38Z"/><path class="cls-4" d="m100.95,220.23v-52.22h59.91c26.31,0,38.46,10.12,38.46,25.51v.8c0,16.61-13.76,25.92-37.65,25.92h-60.72Z"/><path class="cls-2" d="m102.46,96.37l7.25-3.83c6.82-3.58,14.76-7.11,22.13-9.34,39.32-11.94,82.19-2.33,84.06,47.5.59,15.88-.83,32.15-3.48,47.8-4.83,28.57-18.58,79.16-45.52,94.67-5.21,2.99-10.92,4.55-16.79,4.31h0c-9.02-.14-17.74-4.6-24.58-16.71-8.19-14.47-14.92-11.43-22.99-3.48-9.57,9.44-11.34,13.11-25.06,20.43-7.18,3.84-14.29,5.83-20.72,4.5-9.6-1.99-16.72-8.34-21.75-16.5-5.25-8.53-9.54-20.27-12.89-29.72-5-14.11-9.33-28.63-12.91-43.16-5.58-22.64-14.27-63.64-2.57-85.06,18.49-33.82,64.78-28.14,95.83-11.41h0Zm58.53,39.01s-31.38,3.31-55.18-15.78c-23.81-19.07-69.53-29.19-83.67-3.34-14.13,25.86,16.34,121.39,27.92,140.17,11.57,18.78,28.48.88,52.85-23.2,24.36-24.07,36.78,35.01,55.15,24.61,18.38-10.4,41.97-78.5,40.16-126.48-1.8-47.99-52.72-33.84-61.25-31.24-8.54,2.58-19.03,8.08-19.03,8.08,3.12,5.99,24.97,20.55,43.04,27.18h0Z"/><path class="cls-6" d="m60.65,239.41c-6.5-23.73-25.84-76.2-21.03-106.86,4.81-30.66,46.34-24.61,46.34-24.61-23.8-10.2-53.02-11.43-63.81,8.32-14.13,25.86,16.34,121.39,27.92,140.17,9.31,15.14,22.1,6.45,39.46-10.08,0,0-22.39,16.78-28.88-6.95h0Z"/><path class="cls-3" d="m89.53,246.36c4.19-3.99,8.64-8.44,13.39-13.13,24.36-24.07,36.78,35.01,55.15,24.61,18.38-10.4,41.97-78.5,40.16-126.48-1.8-47.99-52.72-33.84-61.25-31.24-8.54,2.58-19.03,8.08-19.03,8.08,3.12,5.99,24.97,20.55,43.04,27.18,0,0-31.38,3.31-55.18-15.78-5.63-4.51-12.49-8.51-19.85-11.66-23.8-10.2-53.02-11.43-63.81,8.32-14.13,25.86,16.34,121.39,27.92,140.17,9.33,15.14,22.1,6.45,39.46-10.08h0Z"/><path class="cls-5" d="m60.65,239.41c-6.5-23.73-25.84-76.2-21.03-106.86,4.81-30.66,46.34-24.61,46.34-24.61-23.8-10.2-53.02-11.43-63.81,8.32-14.13,25.86,16.34,121.39,27.92,140.17,9.31,15.14,22.1,6.45,39.46-10.08,0,0-22.39,16.78-28.88-6.95h0Z"/></g></svg>